# Blender v3.1.2 OBJ File: 'target.blend'
# www.blender.org
mtllib target.mtl
o target
v -101.599998 107.949997 82.550011
v -101.599998 53.974995 82.550003
v -50.799999 48.237194 82.550003
v 101.599998 53.974995 82.550003
v 101.599998 107.949997 82.550011
v 50.799999 48.237194 82.550003
v -33.866699 107.949997 82.550011
v -101.599998 107.949997 82.550011
v -50.799999 48.237194 82.550003
v 101.599998 107.949997 82.550011
v 33.866699 107.949997 82.550011
v 50.799999 48.237194 82.550003
v -101.599998 53.974995 82.550003
v -101.599998 -0.000004 82.550003
v -50.799999 48.237194 82.550003
v 101.599998 -0.000004 82.550003
v 101.599998 53.974995 82.550003
v 50.799999 48.237194 82.550003
v -101.599998 -0.000004 82.550003
v -33.866699 -0.000004 82.550003
v -50.799999 48.237194 82.550003
v 33.866699 -0.000004 82.550003
v 101.599998 -0.000004 82.550003
v 50.799999 48.237194 82.550003
v 33.866699 107.949997 82.550011
v -33.866699 107.949997 82.550011
v 0.000000 53.974995 82.550003
v -33.866699 -0.000004 82.550003
v 33.866699 -0.000004 82.550003
v 0.000000 53.974995 82.550003
v 33.866699 107.949997 82.550011
v 0.000000 53.974995 82.550003
v 50.799999 48.237194 82.550003
v 0.000000 53.974995 82.550003
v -33.866699 107.949997 82.550011
v -50.799999 48.237194 82.550003
v 0.000000 53.974995 82.550003
v 33.866699 -0.000004 82.550003
v 50.799999 48.237194 82.550003
v -33.866699 -0.000004 82.550003
v 0.000000 53.974995 82.550003
v -50.799999 48.237194 82.550003
v 101.599998 107.949997 -82.549995
v 101.599998 53.975014 -82.550003
v 50.799999 48.237213 -82.550003
v -101.599998 0.000004 -82.550003
v -101.599998 53.975014 -82.550003
v -50.799999 59.712814 -82.550003
v 33.866699 107.949997 -82.549995
v 101.599998 107.949997 -82.549995
v 50.799999 48.237213 -82.550003
v -33.866699 0.000004 -82.550003
v -101.599998 0.000004 -82.550003
v -50.799999 59.712814 -82.550003
v 101.599998 53.975014 -82.550003
v 101.599998 0.000004 -82.550003
v 50.799999 48.237213 -82.550003
v -101.599998 53.975014 -82.550003
v -101.599998 107.949997 -82.549995
v -50.799999 59.712814 -82.550003
v 101.599998 0.000004 -82.550003
v 33.866699 0.000004 -82.550003
v 50.799999 48.237213 -82.550003
v -101.599998 107.949997 -82.549995
v -33.866699 107.949997 -82.549995
v -50.799999 59.712814 -82.550003
v -33.866699 107.949997 -82.549995
v 33.866699 107.949997 -82.549995
v 0.000000 53.975014 -82.550003
v 33.866699 0.000004 -82.550003
v -33.866699 0.000004 -82.550003
v 0.000000 53.975014 -82.550003
v 0.000000 53.975014 -82.550003
v 33.866699 107.949997 -82.549995
v 50.799999 48.237213 -82.550003
v 0.000000 53.975014 -82.550003
v -33.866699 0.000004 -82.550003
v -50.799999 59.712814 -82.550003
v 33.866699 0.000004 -82.550003
v 0.000000 53.975014 -82.550003
v 50.799999 48.237213 -82.550003
v -33.866699 107.949997 -82.549995
v 0.000000 53.975014 -82.550003
v -50.799999 59.712814 -82.550003
v -101.599998 107.949997 82.550011
v -101.599998 127.000000 31.750006
v -101.599998 77.829903 47.003712
v -101.599998 127.000000 -31.749985
v -101.599998 107.949997 -82.549995
v -101.599998 77.829903 -47.003696
v -101.599998 53.974995 82.550003
v -101.599998 107.949997 82.550011
v -101.599998 77.829903 47.003712
v -101.599998 107.949997 -82.549995
v -101.599998 53.975014 -82.550003
v -101.599998 77.829903 -47.003696
v -101.599998 127.000000 31.750006
v -101.599998 127.000000 -31.749985
v -101.599998 68.485901 0.000003
v -101.599998 0.000004 -82.550003
v -101.599998 0.000000 0.000000
v -101.599998 40.058197 -42.420700
v -101.599998 0.000000 0.000000
v -101.599998 -0.000004 82.550003
v -101.599998 40.058197 42.420700
v -101.599998 127.000000 31.750006
v -101.599998 68.485901 0.000003
v -101.599998 77.829903 47.003712
v -101.599998 68.485901 0.000003
v -101.599998 127.000000 -31.749985
v -101.599998 77.829903 -47.003696
v -101.599998 53.975014 -82.550003
v -101.599998 0.000004 -82.550003
v -101.599998 40.058197 -42.420700
v -101.599998 -0.000004 82.550003
v -101.599998 53.974995 82.550003
v -101.599998 40.058197 42.420700
v -101.599998 77.829903 -47.003696
v -101.599998 53.975014 -82.550003
v -101.599998 40.058197 -42.420700
v -101.599998 53.974995 82.550003
v -101.599998 77.829903 47.003712
v -101.599998 40.058197 42.420700
v -101.599998 107.949989 95.250015
v -101.599998 126.999992 95.250023
v -101.599998 107.949997 82.550011
v -101.599998 107.949997 -82.549995
v -101.599998 127.000008 -95.249992
v -101.599998 107.950005 -95.250000
v -101.599998 68.485901 0.000003
v -101.599998 0.000000 0.000000
v -101.599998 40.058197 42.420700
v -101.599998 0.000000 0.000000
v -101.599998 68.485901 0.000003
v -101.599998 40.058197 -42.420700
v -101.599998 68.485901 0.000003
v -101.599998 77.829903 -47.003696
v -101.599998 40.058197 -42.420700
v -101.599998 77.829903 47.003712
v -101.599998 68.485901 0.000003
v -101.599998 40.058197 42.420700
v -101.599998 126.999992 95.250023
v -101.599998 127.000000 31.750006
v -101.599998 107.949997 82.550011
v -101.599998 127.000000 -31.749985
v -101.599998 127.000008 -95.249992
v -101.599998 107.949997 -82.549995
v 101.599998 107.949997 -82.549995
v 101.599998 127.000000 -31.749985
v 101.599998 77.829903 -47.003696
v 101.599998 127.000000 31.750006
v 101.599998 107.949997 82.550011
v 101.599998 77.829903 47.003712
v 101.599998 53.975014 -82.550003
v 101.599998 107.949997 -82.549995
v 101.599998 77.829903 -47.003696
v 101.599998 107.949997 82.550011
v 101.599998 53.974995 82.550003
v 101.599998 77.829903 47.003712
v 101.599998 127.000000 -31.749985
v 101.599998 127.000000 31.750006
v 101.599998 68.485901 0.000003
v 101.599998 -0.000004 82.550003
v 101.599998 0.000000 0.000000
v 101.599998 40.058197 42.420700
v 101.599998 0.000000 0.000000
v 101.599998 0.000004 -82.550003
v 101.599998 40.058197 -42.420700
v 101.599998 68.485901 0.000003
v 101.599998 127.000000 31.750006
v 101.599998 77.829903 47.003712
v 101.599998 127.000000 -31.749985
v 101.599998 68.485901 0.000003
v 101.599998 77.829903 -47.003696
v 101.599998 53.974995 82.550003
v 101.599998 -0.000004 82.550003
v 101.599998 40.058197 42.420700
v 101.599998 0.000004 -82.550003
v 101.599998 53.975014 -82.550003
v 101.599998 40.058197 -42.420700
v 101.599998 77.829903 47.003712
v 101.599998 53.974995 82.550003
v 101.599998 40.058197 42.420700
v 101.599998 53.975014 -82.550003
v 101.599998 77.829903 -47.003696
v 101.599998 40.058197 -42.420700
v 101.599998 107.949997 82.550011
v 101.599998 126.999992 95.250023
v 101.599998 107.949989 95.250015
v 101.599998 127.000008 -95.249992
v 101.599998 107.949997 -82.549995
v 101.599998 107.950005 -95.250000
v 101.599998 0.000000 0.000000
v 101.599998 68.485901 0.000003
v 101.599998 40.058197 42.420700
v 101.599998 68.485901 0.000003
v 101.599998 0.000000 0.000000
v 101.599998 40.058197 -42.420700
v 101.599998 77.829903 -47.003696
v 101.599998 68.485901 0.000003
v 101.599998 40.058197 -42.420700
v 101.599998 68.485901 0.000003
v 101.599998 77.829903 47.003712
v 101.599998 40.058197 42.420700
v 101.599998 127.000000 31.750006
v 101.599998 126.999992 95.250023
v 101.599998 107.949997 82.550011
v 101.599998 127.000008 -95.249992
v 101.599998 127.000000 -31.749985
v 101.599998 107.949997 -82.549995
v 101.599998 127.000000 -31.749985
v 101.599998 127.000008 -95.249992
v 46.434399 127.000000 -40.781097
v 101.599998 126.999992 95.250023
v 101.599998 127.000000 31.750006
v 46.434399 127.000000 40.781116
v 101.599998 127.000008 -95.249992
v 33.866699 127.000008 -95.249992
v 46.434399 127.000000 -40.781097
v 33.866699 126.999992 95.250023
v 101.599998 126.999992 95.250023
v 46.434399 127.000000 40.781116
v 46.434399 127.000000 -40.781097
v 33.866699 127.000008 -95.249992
v -10.525800 127.000000 -49.130199
v 33.866699 126.999992 95.250023
v 46.434399 127.000000 40.781116
v -10.525800 127.000000 49.130215
v 33.866699 127.000008 -95.249992
v -33.866699 127.000008 -95.249992
v -10.525800 127.000000 -49.130199
v -33.866699 126.999992 95.250023
v 33.866699 126.999992 95.250023
v -10.525800 127.000000 49.130215
v -101.599998 127.000000 -31.749985
v -101.599998 127.000000 31.750006
v -52.951199 127.000000 0.000016
v -101.599998 127.000000 -31.749985
v -52.951199 127.000000 0.000016
v -60.108700 127.000000 -54.275997
v -52.951199 127.000000 0.000016
v -101.599998 127.000000 31.750006
v -60.108700 127.000000 54.276012
v 46.434399 127.000000 40.781116
v 11.095400 127.000000 0.000016
v -10.525800 127.000000 49.130215
v 11.095400 127.000000 0.000016
v 46.434399 127.000000 -40.781097
v -10.525800 127.000000 -49.130199
v -33.866699 127.000008 -95.249992
v -101.599998 127.000008 -95.249992
v -60.108700 127.000000 -54.275997
v -101.599998 126.999992 95.250023
v -33.866699 126.999992 95.250023
v -60.108700 127.000000 54.276012
v -10.525800 127.000000 49.130215
v -52.951199 127.000000 0.000016
v -60.108700 127.000000 54.276012
v -52.951199 127.000000 0.000016
v -10.525800 127.000000 -49.130199
v -60.108700 127.000000 -54.275997
v 101.599998 127.000000 31.750006
v 101.599998 127.000000 -31.749985
v 64.688705 127.000000 0.000016
v -101.599998 127.000008 -95.249992
v -101.599998 127.000000 -31.749985
v -60.108700 127.000000 -54.275997
v -101.599998 127.000000 31.750006
v -101.599998 126.999992 95.250023
v -60.108700 127.000000 54.276012
v 11.095400 127.000000 0.000016
v -52.951199 127.000000 0.000016
v -10.525800 127.000000 49.130215
v -52.951199 127.000000 0.000016
v 11.095400 127.000000 0.000016
v -10.525800 127.000000 -49.130199
v 11.095400 127.000000 0.000016
v 46.434399 127.000000 40.781116
v 64.688705 127.000000 0.000016
v 46.434399 127.000000 -40.781097
v 11.095400 127.000000 0.000016
v 64.688705 127.000000 0.000016
v 101.599998 127.000000 -31.749985
v 46.434399 127.000000 -40.781097
v 64.688705 127.000000 0.000016
v 46.434399 127.000000 40.781116
v 101.599998 127.000000 31.750006
v 64.688705 127.000000 0.000016
v -10.525800 127.000000 -49.130199
v -33.866699 127.000008 -95.249992
v -60.108700 127.000000 -54.275997
v -33.866699 126.999992 95.250023
v -10.525800 127.000000 49.130215
v -60.108700 127.000000 54.276012
v -101.599998 0.000000 0.000000
v -47.987801 -0.000001 29.042799
v -101.599998 -0.000004 82.550003
v 101.599998 -0.000004 82.550003
v 47.987801 -0.000001 29.042799
v 101.599998 0.000000 0.000000
v -101.599998 0.000004 -82.550003
v -48.466103 0.000001 -29.785000
v -101.599998 0.000000 0.000000
v 101.599998 0.000000 0.000000
v 48.466103 0.000001 -29.785000
v 101.599998 0.000004 -82.550003
v -101.599998 -0.000004 82.550003
v -47.987801 -0.000001 29.042799
v -33.866699 -0.000004 82.550003
v 33.866699 -0.000004 82.550003
v 47.987801 -0.000001 29.042799
v 101.599998 -0.000004 82.550003
v -33.866699 0.000004 -82.550003
v -48.466103 0.000001 -29.785000
v -101.599998 0.000004 -82.550003
v 101.599998 0.000004 -82.550003
v 48.466103 0.000001 -29.785000
v 33.866699 0.000004 -82.550003
v -33.866699 -0.000004 82.550003
v 0.000000 -0.000002 44.710201
v 33.866699 -0.000004 82.550003
v 33.866699 0.000004 -82.550003
v 0.000000 0.000002 -44.860901
v -33.866699 0.000004 -82.550003
v 48.466103 0.000001 -29.785000
v 47.987801 -0.000001 29.042799
v 0.000000 -0.000000 0.365380
v 0.000000 -0.000000 0.365380
v -47.987801 -0.000001 29.042799
v -48.466103 0.000001 -29.785000
v 0.000000 -0.000000 0.365380
v 0.000000 0.000002 -44.860901
v 48.466103 0.000001 -29.785000
v 48.466103 0.000001 -29.785000
v 0.000000 0.000002 -44.860901
v 33.866699 0.000004 -82.550003
v -33.866699 0.000004 -82.550003
v 0.000000 0.000002 -44.860901
v -48.466103 0.000001 -29.785000
v -48.466103 0.000001 -29.785000
v 0.000000 0.000002 -44.860901
v 0.000000 -0.000000 0.365380
v -48.466103 0.000001 -29.785000
v -47.987801 -0.000001 29.042799
v -101.599998 0.000000 0.000000
v 101.599998 0.000000 0.000000
v 47.987801 -0.000001 29.042799
v 48.466103 0.000001 -29.785000
v 47.987801 -0.000001 29.042799
v 0.000000 -0.000002 44.710201
v 0.000000 -0.000000 0.365380
v 33.866699 -0.000004 82.550003
v 0.000000 -0.000002 44.710201
v 47.987801 -0.000001 29.042799
v 0.000000 -0.000000 0.365380
v 0.000000 -0.000002 44.710201
v -47.987801 -0.000001 29.042799
v -47.987801 -0.000001 29.042799
v 0.000000 -0.000002 44.710201
v -33.866699 -0.000004 82.550003
v -101.599998 107.950005 -95.250000
v -101.599998 127.000008 -95.249992
v -33.866699 127.000008 -95.249992
v -101.599998 107.950005 -95.250000
v -33.866699 127.000008 -95.249992
v -33.866699 107.950005 -95.250000
v 33.866699 127.000008 -95.249992
v 101.599998 127.000008 -95.249992
v 101.599998 107.950005 -95.250000
v 33.866699 107.950005 -95.250000
v 33.866699 127.000008 -95.249992
v 101.599998 107.950005 -95.250000
v -33.866699 127.000008 -95.249992
v 33.866699 127.000008 -95.249992
v 33.866699 107.950005 -95.250000
v -33.866699 127.000008 -95.249992
v 33.866699 107.950005 -95.250000
v -33.866699 107.950005 -95.250000
v 101.599998 107.950005 -95.250000
v 101.599998 107.949997 -82.549995
v 33.866699 107.949997 -82.549995
v -101.599998 107.950005 -95.250000
v -33.866699 107.950005 -95.250000
v -101.599998 107.949997 -82.549995
v -33.866699 107.950005 -95.250000
v -33.866699 107.949997 -82.549995
v -101.599998 107.949997 -82.549995
v 101.599998 107.950005 -95.250000
v 33.866699 107.949997 -82.549995
v 33.866699 107.950005 -95.250000
v 33.866699 107.949997 -82.549995
v -33.866699 107.949997 -82.549995
v -33.866699 107.950005 -95.250000
v 33.866699 107.950005 -95.250000
v 33.866699 107.949997 -82.549995
v -33.866699 107.950005 -95.250000
v -101.599998 107.949997 82.550011
v -33.866699 107.949989 95.250015
v -101.599998 107.949989 95.250015
v -101.599998 107.949997 82.550011
v -33.866699 107.949997 82.550011
v -33.866699 107.949989 95.250015
v 101.599998 107.949997 82.550011
v 101.599998 107.949989 95.250015
v 33.866699 107.949997 82.550011
v 33.866699 107.949997 82.550011
v 101.599998 107.949989 95.250015
v 33.866699 107.949989 95.250015
v 33.866699 107.949997 82.550011
v 33.866699 107.949989 95.250015
v -33.866699 107.949997 82.550011
v -33.866699 107.949997 82.550011
v 33.866699 107.949989 95.250015
v -33.866699 107.949989 95.250015
v -33.866699 126.999992 95.250023
v -101.599998 126.999992 95.250023
v -101.599998 107.949989 95.250015
v -33.866699 126.999992 95.250023
v -101.599998 107.949989 95.250015
v -33.866699 107.949989 95.250015
v 101.599998 107.949989 95.250015
v 101.599998 126.999992 95.250023
v 33.866699 107.949989 95.250015
v 101.599998 126.999992 95.250023
v 33.866699 126.999992 95.250023
v 33.866699 107.949989 95.250015
v 33.866699 126.999992 95.250023
v -33.866699 126.999992 95.250023
v -33.866699 107.949989 95.250015
v 33.866699 107.949989 95.250015
v 33.866699 126.999992 95.250023
v -33.866699 107.949989 95.250015
vn 0.0000 -0.0000 1.0000
vn -0.0000 0.0000 -1.0000
vn -1.0000 0.0000 0.0000
vn 1.0000 -0.0000 0.0000
vn -0.0000 1.0000 0.0000
vn 0.0000 -1.0000 -0.0000
usemtl Default_OBJ
s 1
f 1//1 2//1 3//1
f 4//1 5//1 6//1
f 7//1 8//1 9//1
f 10//1 11//1 12//1
f 13//1 14//1 15//1
f 16//1 17//1 18//1
f 19//1 20//1 21//1
f 22//1 23//1 24//1
f 25//1 26//1 27//1
f 28//1 29//1 30//1
f 31//1 32//1 33//1
f 34//1 35//1 36//1
f 37//1 38//1 39//1
f 40//1 41//1 42//1
f 43//2 44//2 45//2
f 46//2 47//2 48//2
f 49//2 50//2 51//2
f 52//2 53//2 54//2
f 55//2 56//2 57//2
f 58//2 59//2 60//2
f 61//2 62//2 63//2
f 64//2 65//2 66//2
f 67//2 68//2 69//2
f 70//2 71//2 72//2
f 73//2 74//2 75//2
f 76//2 77//2 78//2
f 79//2 80//2 81//2
f 82//2 83//2 84//2
f 85//3 86//3 87//3
f 88//3 89//3 90//3
f 91//3 92//3 93//3
f 94//3 95//3 96//3
f 97//3 98//3 99//3
f 100//3 101//3 102//3
f 103//3 104//3 105//3
f 106//3 107//3 108//3
f 109//3 110//3 111//3
f 112//3 113//3 114//3
f 115//3 116//3 117//3
f 118//3 119//3 120//3
f 121//3 122//3 123//3
f 124//3 125//3 126//3
f 127//3 128//3 129//3
f 130//3 131//3 132//3
f 133//3 134//3 135//3
f 136//3 137//3 138//3
f 139//3 140//3 141//3
f 142//3 143//3 144//3
f 145//3 146//3 147//3
f 148//4 149//4 150//4
f 151//4 152//4 153//4
f 154//4 155//4 156//4
f 157//4 158//4 159//4
f 160//4 161//4 162//4
f 163//4 164//4 165//4
f 166//4 167//4 168//4
f 169//4 170//4 171//4
f 172//4 173//4 174//4
f 175//4 176//4 177//4
f 178//4 179//4 180//4
f 181//4 182//4 183//4
f 184//4 185//4 186//4
f 187//4 188//4 189//4
f 190//4 191//4 192//4
f 193//4 194//4 195//4
f 196//4 197//4 198//4
f 199//4 200//4 201//4
f 202//4 203//4 204//4
f 205//4 206//4 207//4
f 208//4 209//4 210//4
f 211//5 212//5 213//5
f 214//5 215//5 216//5
f 217//5 218//5 219//5
f 220//5 221//5 222//5
f 223//5 224//5 225//5
f 226//5 227//5 228//5
f 229//5 230//5 231//5
f 232//5 233//5 234//5
f 235//5 236//5 237//5
f 238//5 239//5 240//5
f 241//5 242//5 243//5
f 244//5 245//5 246//5
f 247//5 248//5 249//5
f 250//5 251//5 252//5
f 253//5 254//5 255//5
f 256//5 257//5 258//5
f 259//5 260//5 261//5
f 262//5 263//5 264//5
f 265//5 266//5 267//5
f 268//5 269//5 270//5
f 271//5 272//5 273//5
f 274//5 275//5 276//5
f 277//5 278//5 279//5
f 280//5 281//5 282//5
f 283//5 284//5 285//5
f 286//5 287//5 288//5
f 289//5 290//5 291//5
f 292//5 293//5 294//5
f 295//6 296//6 297//6
f 298//6 299//6 300//6
f 301//6 302//6 303//6
f 304//6 305//6 306//6
f 307//6 308//6 309//6
f 310//6 311//6 312//6
f 313//6 314//6 315//6
f 316//6 317//6 318//6
f 319//6 320//6 321//6
f 322//6 323//6 324//6
f 325//6 326//6 327//6
f 328//6 329//6 330//6
f 331//6 332//6 333//6
f 334//6 335//6 336//6
f 337//6 338//6 339//6
f 340//6 341//6 342//6
f 343//6 344//6 345//6
f 346//6 347//6 348//6
f 349//6 350//6 351//6
f 352//6 353//6 354//6
f 355//6 356//6 357//6
f 358//6 359//6 360//6
f 361//2 362//2 363//2
f 364//2 365//2 366//2
f 367//2 368//2 369//2
f 370//2 371//2 372//2
f 373//2 374//2 375//2
f 376//2 377//2 378//2
f 379//6 380//6 381//6
f 382//6 383//6 384//6
f 385//6 386//6 387//6
f 388//6 389//6 390//6
f 391//6 392//6 393//6
f 394//6 395//6 396//6
f 397//6 398//6 399//6
f 400//6 401//6 402//6
f 403//6 404//6 405//6
f 406//6 407//6 408//6
f 409//6 410//6 411//6
f 412//6 413//6 414//6
f 415//1 416//1 417//1
f 418//1 419//1 420//1
f 421//1 422//1 423//1
f 424//1 425//1 426//1
f 427//1 428//1 429//1
f 430//1 431//1 432//1
